Storyline

Sherlock Holmes (Robert Downey, Jr.) and his longtime trusted associate, Doctor Watson (Jude Law), take on their arch-nemesis, Professor Moriarty (Jared Harris), with the help of Holmes's older brother Mycroft Holmes (Stephen Fry) and a gypsy named Sim (Noomi Rapace).

Source Used

Sherlock Holmes A Game of Shadows 2011 German DL 720p BluRay x264-SONS .Thanks

Format : AVI
Format/Info : Audio Video Interleave
Format profile : OpenDML
File size : 2.09 GiB
Duration : 2h 8mn
Overall bit rate : 2 327 Kbps
Writing application : VirtualDubMod 1.5.10.2 (build 2540/release)
Writing library : VirtualDubMod build 2540/release

Video
ID : 0
Format : MPEG-4 Visual
Format profile : Advanced Simple@L5
Format settings, BVOP : 2
Format settings, QPel : No
Format settings, GMC : No warppoints
Format settings, Matrix : Default (H.263)
Muxing mode : Packed bitstream
Codec ID : XVID
Codec ID/Hint : XviD
Duration : 2h 8mn
Bit rate : 1 931 Kbps
Width : 720 pixels
Height : 304 pixels
Display aspect ratio : 2.35:1
Frame rate : 23.976 fps
Color space : YUV
Chroma subsampling : 4:2:0
Bit depth : 8 bits
Scan type : Progressive
Compression mode : Lossy
Bits/(Pixel*Frame) : 0.368
Stream size : 1.74 GiB (83%)
Writing library : XviD 64

Audio
ID : 1
Format : AC-3
Format/Info : Audio Coding 3
Mode extension : CM (complete main)
Format settings, Endianness : Big
Codec ID : 2000
Duration : 2h 8mn
Bit rate mode : Constant
Bit rate : 384 Kbps
Channel(s) : 6 channels
Channel positions : Front: L C R, Side: L R, LFE
Sampling rate : 48.0 KHz
Bit depth : 16 bits
Compression mode : Lossy
Stream size : 354 MiB (17%)
Alignment : Split accross interleaves
Interleave, duration : 42 ms (1.00 video frame)
Interleave, preload duration : 500 ms

hxxp://img840.imageshack.us/img840/5867/vlcsnap2012041512h41m31.png
hxxp://img684.imageshack.us/img684/7472/vlcsnap2012041513h06m05.png


Thanks to 'sahibgrew'....

HAVE FUN!!!